<!-- Official Python logo mark used in the custom console Python cell. -->
<svg xmlns="http://www.w3.org/2000/svg" viewBox="0 0 122 124" role="img">
  <defs>
    <linearGradient id="blue" x1="26.648937" y1="20.603781" x2="135.66525" y2="114.39767" gradientTransform="matrix(0.562541 0 0 0.567972 -9.399749 -5.305317)" gradientUnits="userSpaceOnUse">
      <stop offset="0" stop-color="#5a9fd4"/>
      <stop offset="1" stop-color="#306998"/>
    </linearGradient>
    <linearGradient id="yellow" x1="150.96111" y1="192.35176" x2="112.03144" y2="137.27299" gradientTransform="matrix(0.562541 0 0 0.567972 -9.399749 -5.305317)" gradientUnits="userSpaceOnUse">
      <stop offset="0" stop-color="#ffd43b"/>
      <stop offset="1" stop-color="#ffe873"/>
    </linearGradient>
  </defs>
  <path fill="url(#blue)" d="M60.510156 6.3979729C55.926503 6.4192712 51.549217 6.8101906 47.697656 7.4917229C36.35144 9.4962267 34.291407 13.691825 34.291406 21.429223V31.647973H61.103906V35.054223H24.228906C16.436447 35.054223 9.6131468 39.73794 7.4789058 48.647973C5.0170858 58.860939 4.9078907 65.233996 7.4789058 75.897973C9.3848341 83.835825 13.936449 89.491721 21.728906 89.491723H30.947656V77.241723C30.947656 68.391821 38.6048 60.585475 47.697656 60.585473H74.478906C81.933857 60.585473 87.885159 54.447309 87.885156 46.960473V21.429223C87.885156 14.162884 81.755176 8.7044455 74.478906 7.4917229C69.872919 6.7249976 65.093809 6.3766746 60.510156 6.3979729ZM46.010156 14.616723C48.779703 14.616723 51.041406 16.915369 51.041406 19.741723C51.041404 22.558059 48.779703 24.835473 46.010156 24.835473C43.23068 24.835472 40.978906 22.558058 40.978906 19.741723C40.978905 16.91537 43.23068 14.616723 46.010156 14.616723Z"/>
  <path fill="url(#yellow)" d="M91.228906 35.054223V46.960473C91.228906 56.191228 83.403011 63.960472 74.478906 63.960473H47.697656C40.361823 63.960473 34.291407 70.238956 34.291406 77.585473V103.11672C34.291406 110.38306 40.609994 114.65704 47.697656 116.74172C56.184987 119.23733 64.323893 119.68835 74.478906 116.74172C81.229061 114.78733 87.885159 110.85411 87.885156 103.11672V92.897973H61.103906V89.491723H101.29141C109.08387 89.491723 111.98766 84.056315 114.69765 75.897973C117.49698 67.499087 117.37787 59.422197 114.69765 48.647973C112.77187 40.890532 109.09378 35.054223 101.29141 35.054223H91.228906ZM76.166406 99.710473C78.945884 99.710476 81.197656 101.98789 81.197656 104.80422C81.197654 107.63057 78.945881 109.92922 76.166406 109.92922C73.396856 109.92922 71.135156 107.63057 71.135156 104.80422C71.135158 101.98789 73.396853 99.710473 76.166406 99.710473Z"/>
</svg>
